<svg width="20" height="23" viewBox="0 0 20 23" fill="none" xmlns="http://www.w3.org/2000/svg">
<path d="M10.0044 6.31737C7.16678 6.31737 4.87794 8.60583 4.87794 11.443C4.87794 14.2801 7.16678 16.5686 10.0044 16.5686C12.842 16.5686 15.1309 14.2801 15.1309 11.443C15.1309 8.60583 12.842 6.31737 10.0044 6.31737ZM10.0044 14.7753C8.17066 14.7753 6.67154 13.2809 6.67154 11.443C6.67154 9.60508 8.1662 8.11067 10.0044 8.11067C11.8426 8.11067 13.3373 9.60508 13.3373 11.443C13.3373 13.2809 11.8382 14.7753 10.0044 14.7753ZM16.5363 6.10771C16.5363 6.77239 16.0009 7.30324 15.3406 7.30324C14.6758 7.30324 14.1449 6.76793 14.1449 6.10771C14.1449 5.44749 14.6803 4.91218 15.3406 4.91218C16.0009 4.91218 16.5363 5.44749 16.5363 6.10771ZM19.9317 7.32108C19.8558 5.71961 19.4899 4.30103 18.3165 3.13226C17.1476 1.9635 15.7287 1.5977 14.127 1.5174C12.4762 1.42372 7.52818 1.42372 5.87736 1.5174C4.28008 1.59324 2.86126 1.95904 1.68784 3.1278C0.514419 4.29657 0.153023 5.71515 0.0727129 7.31662C-0.0209824 8.96717 -0.0209824 13.9143 0.0727129 15.5649C0.148561 17.1664 0.514419 18.5849 1.68784 19.7537C2.86126 20.9225 4.27562 21.2883 5.87736 21.3686C7.52818 21.4623 12.4762 21.4623 14.127 21.3686C15.7287 21.2927 17.1476 20.9269 18.3165 19.7537C19.4855 18.5849 19.8513 17.1664 19.9317 15.5649C20.0253 13.9143 20.0253 8.97163 19.9317 7.32108ZM17.799 17.3359C17.451 18.2102 16.7772 18.8838 15.8983 19.2362C14.5821 19.7582 11.4589 19.6377 10.0044 19.6377C8.5499 19.6377 5.42227 19.7537 4.11053 19.2362C3.23604 18.8883 2.56233 18.2147 2.20986 17.3359C1.68784 16.0199 1.80831 12.8973 1.80831 11.443C1.80831 9.98872 1.6923 6.86161 2.20986 5.55009C2.55787 4.67575 3.23158 4.00215 4.11053 3.64973C5.42673 3.1278 8.5499 3.24825 10.0044 3.24825C11.4589 3.24825 14.5866 3.13226 15.8983 3.64973C16.7728 3.99768 17.4465 4.67129 17.799 5.55009C18.321 6.86607 18.2005 9.98872 18.2005 11.443C18.2005 12.8973 18.321 16.0244 17.799 17.3359Z" fill="white"/>
</svg>
